<svg width="26" height="32" viewBox="0 0 26 32" fill="none" xmlns="http://www.w3.org/2000/svg">
<path d="M21.716 17.0175C21.6796 12.9748 25.0217 11.008 25.1745 10.9165C23.2818 8.15316 20.3481 7.77561 19.3171 7.74551C16.8532 7.48586 14.4631 9.22186 13.208 9.22186C11.9278 9.22186 9.99497 7.77059 7.91182 7.81324C5.23116 7.85463 2.72337 9.40875 1.34796 11.8221C-1.49053 16.7428 0.626442 23.9741 3.34593 27.9516C4.7063 29.8995 6.29591 32.0746 8.37655 31.998C10.4121 31.914 11.1725 30.6986 13.6289 30.6986C16.0628 30.6986 16.7768 31.998 18.8988 31.9491C21.0834 31.914 22.4588 29.9924 23.7715 28.0268C25.3436 25.7941 25.9749 23.5953 26 23.4824C25.9486 23.4648 21.7573 21.863 21.716 17.0175Z" fill="white"/>
<path d="M17.7075 5.12897C18.8023 3.75798 19.5514 1.89279 19.3434 0C17.7589 0.0702427 15.7772 1.09754 14.636 2.43842C13.6264 3.62001 12.7245 5.5567 12.9575 7.37799C14.7375 7.51095 16.5651 6.47863 17.7075 5.12897Z" fill="white"/>
</svg>
