<svg width="177" height="64" viewBox="0 0 177 64" fill="none" xmlns="http://www.w3.org/2000/svg">
<path d="M2.67063 12.92H9.03063L8.39063 29.8H3.27063L2.67063 12.92ZM3.15063 34.28H8.51063V40H3.15063V34.28ZM26.3619 49.8H31.3619V44.8H26.3619V49.8ZM33.4419 49.8H38.4419V44.8H33.4419V49.8ZM29.8019 56.28H34.8019V51.28H29.8019V56.28ZM21.9619 23.88V31.2C21.9619 32.0267 22.2419 32.7333 22.8019 33.32C23.3885 33.88 24.1085 34.16 24.9619 34.16H41.5219C41.9752 34.16 42.3485 34.0133 42.6419 33.72C42.9619 33.4 43.1219 33.0267 43.1219 32.6V25.04H48.0819V32.56C48.0819 33.0133 48.2285 33.4 48.5219 33.72C48.8419 34.04 49.2285 34.2 49.6819 34.2H50.8419C51.2419 34.2 51.4419 34.3867 51.4419 34.76V39.44C51.4419 39.5733 51.3752 39.7067 51.2419 39.84C51.1352 39.9467 51.0019 40 50.8419 40H50.5219C48.5485 40 46.9219 39.2533 45.6419 37.76C44.9485 38.5333 44.1752 39.1067 43.3219 39.48C42.4952 39.8267 41.6019 40 40.6419 40H25.4419C24.2685 40 23.1619 39.7867 22.1219 39.36C21.1085 38.9067 20.2152 38.2933 19.4419 37.52C18.6952 36.7467 18.0952 35.8533 17.6419 34.84C17.2152 33.8 17.0019 32.7067 17.0019 31.56V23.88H21.9619ZM51.5872 48.92L65.2272 46L66.1472 50.16L52.3072 53.08L51.5872 48.92ZM51.9794 21.84H56.9794V16.84H51.9794V21.84ZM59.0594 21.84H64.0594V16.84H59.0594V21.84ZM66.8594 39.44C66.8594 39.5733 66.806 39.7067 66.6994 39.84C66.5927 39.9467 66.4594 40 66.2994 40H63.0594C62.2327 40 61.406 39.8 60.5794 39.4C59.7794 39 59.1794 38.4533 58.7794 37.76C58.2727 38.4533 57.5794 39 56.6994 39.4C55.846 39.8 54.9927 40 54.1394 40H50.8594C50.726 40 50.606 39.9467 50.4994 39.84C50.366 39.7333 50.2994 39.6 50.2994 39.44V34.76C50.2994 34.6 50.366 34.4667 50.4994 34.36C50.606 34.2267 50.726 34.16 50.8594 34.16H54.6194C55.0727 34.16 55.4727 34.0267 55.8194 33.76C56.166 33.4667 56.3794 33.0933 56.4594 32.64L58.0194 25.12L62.8594 26L61.6194 32.32C61.5127 32.8267 61.606 33.2667 61.8994 33.64C62.1927 33.9867 62.5927 34.16 63.0994 34.16H66.2994C66.4594 34.16 66.5927 34.2267 66.6994 34.36C66.806 34.4667 66.8594 34.6 66.8594 34.76V39.44ZM77.2091 40C76.2491 40 75.3424 39.8267 74.4891 39.48C73.6624 39.1067 72.9291 38.5333 72.2891 37.76C71.5957 38.5333 70.8224 39.1067 69.9691 39.48C69.1424 39.8267 68.2491 40 67.2891 40H66.2891C66.1291 40 65.9957 39.9467 65.8891 39.84C65.7824 39.7067 65.7291 39.5733 65.7291 39.44V34.76C65.7291 34.6 65.7957 34.4667 65.9291 34.36C66.0357 34.2267 66.1557 34.16 66.2891 34.16H68.2091C68.6624 34.16 69.0357 34 69.3291 33.68C69.6491 33.3333 69.8091 32.9333 69.8091 32.48V25.04H74.7291V32.48C74.7291 32.9333 74.8757 33.3333 75.1691 33.68C75.4891 34 75.8757 34.16 76.3291 34.16H77.5691C78.0224 34.16 78.4224 34.0267 78.7691 33.76C79.1157 33.4667 79.3424 33.0933 79.4491 32.64L80.9691 25.12L85.9291 26L84.6491 32.28C84.5424 32.7333 84.6491 33.16 84.9691 33.56C85.2891 33.96 85.6757 34.16 86.1291 34.16H89.2491V24H94.2091V34.68C94.2091 35.4 94.0624 36.08 93.7691 36.72C93.5024 37.36 93.1157 37.9333 92.6091 38.44C92.1291 38.92 91.5691 39.3067 90.9291 39.6C90.2891 39.8667 89.6091 40 88.8891 40H86.1291C85.2757 40 84.4891 39.8267 83.7691 39.48C83.0491 39.1333 82.3957 38.5467 81.8091 37.72C81.1691 38.5733 80.4491 39.1733 79.6491 39.52C78.8757 39.84 78.0624 40 77.2091 40ZM92.6028 48.92L106.243 46L107.163 50.16L93.3228 53.08L92.6028 48.92ZM102.938 40H97.9784V12.24H102.938V40Z" fill="#BDB0FF"/>
<path d="M135.627 28.7191C135.875 28.6521 136.133 28.7817 136.217 29.0241C137.286 32.0946 138.134 37.5291 134.89 38.7024C128.744 40.9699 126.694 33.7825 126.223 31.7832C126.159 31.5117 126.332 31.2313 126.601 31.1585L135.627 28.7191ZM124.961 29.078C125.074 29.3024 125.335 29.425 125.579 29.3646L135.11 27.0039C135.366 26.9405 135.527 26.6891 135.494 26.4275C135.19 24.0494 135.806 21.6466 135.806 18.8401C135.806 14.7906 132.6 6.86012 127.49 8.13767C121.657 9.58394 120.813 16.0681 121.03 19.2017C121.285 21.9696 124.174 27.521 124.961 29.078ZM154.424 47.8538C154.685 47.9169 154.849 48.1698 154.783 48.43C154.28 50.4124 151.951 57.8379 145.761 55.5756C142.536 54.3778 143.626 49.0178 144.718 45.957C144.802 45.7201 145.053 45.5902 145.297 45.6493L154.424 47.8538ZM159.597 36.075C159.838 32.9414 159.019 26.4331 153.161 24.9868C148.075 23.6611 144.869 31.6397 144.869 35.7134C144.869 38.5004 145.466 40.904 145.197 43.2845C145.168 43.5429 145.329 43.7885 145.581 43.8513L155.092 46.2181C155.328 46.2767 155.576 46.1641 155.686 45.9482C156.47 44.4211 159.362 38.8341 159.597 36.075Z" fill="#BDB0FF"/>
</svg>
