<svg width="33" height="32" viewBox="0 0 33 32" fill="none" xmlns="http://www.w3.org/2000/svg">
<path d="M32.4102 9.40272C32.3334 7.69896 32.0582 6.53323 31.6677 5.51481C31.258 4.46437 30.7139 3.56765 29.8241 2.68375C28.9343 1.79984 28.0445 1.24259 26.9947 0.839071C25.9769 0.441954 24.8119 0.172938 23.1092 0.0960769C21.4 0.0192154 20.8559 0 16.5158 0C12.1694 0 11.6253 0.0192154 9.92252 0.0960769C8.21978 0.172938 7.05475 0.448359 6.03695 0.839071C4.98074 1.249 4.08456 1.79343 3.20118 2.68375C2.3178 3.57406 1.76089 4.46437 1.35761 5.51481C0.967133 6.53323 0.691878 7.69896 0.615062 9.40272C0.538247 11.1129 0.519043 11.6573 0.519043 16C0.519043 20.3491 0.538247 20.8935 0.615062 22.5973C0.691878 24.301 0.967133 25.4668 1.35761 26.4852C1.76729 27.5356 2.3114 28.4323 3.20118 29.3163C4.08456 30.2066 4.98074 30.7574 6.03055 31.1609C7.04835 31.558 8.21338 31.8271 9.91612 31.9039C11.6253 31.9808 12.1694 32 16.5094 32C20.8559 32 21.4 31.9808 23.1028 31.9039C24.8055 31.8271 25.9705 31.5516 26.9883 31.1609C28.0381 30.751 28.9343 30.2066 29.8177 29.3163C30.7011 28.4259 31.258 27.5356 31.6613 26.4852C32.0582 25.4668 32.327 24.301 32.4038 22.5973C32.4806 20.8871 32.4998 20.3427 32.4998 16C32.4998 11.6573 32.487 11.1065 32.4102 9.40272ZM29.536 22.4692C29.4656 24.032 29.2032 24.8839 28.9855 25.4412C28.6975 26.1841 28.3454 26.7222 27.7821 27.2858C27.2188 27.8495 26.6875 28.189 25.9385 28.49C25.3752 28.7078 24.5238 28.9704 22.9683 29.0408C21.2848 29.1177 20.7791 29.1369 16.503 29.1369C12.227 29.1369 11.7213 29.1177 10.0377 29.0408C8.47583 28.9704 7.62446 28.7078 7.06755 28.49C6.325 28.2018 5.7873 27.8495 5.22398 27.2858C4.66067 26.7222 4.3214 26.1906 4.02054 25.4412C3.8029 24.8775 3.54045 24.0256 3.47003 22.4692C3.39322 20.7846 3.37401 20.2786 3.37401 16C3.37401 11.7214 3.39322 11.2154 3.47003 9.53082C3.54045 7.96797 3.8029 7.11609 4.02054 6.55885C4.3086 5.81585 4.66067 5.27782 5.22398 4.71417C5.7873 4.15052 6.3186 3.81105 7.06755 3.51001C7.63087 3.29223 8.48224 3.02962 10.0377 2.95917C11.7213 2.88231 12.227 2.86309 16.503 2.86309C20.7791 2.86309 21.2848 2.88231 22.9683 2.95917C24.5302 3.02962 25.3816 3.29223 25.9385 3.51001C26.6811 3.79824 27.2188 4.15052 27.7821 4.71417C28.3454 5.27782 28.6847 5.80945 28.9855 6.55885C29.2032 7.1225 29.4656 7.97438 29.536 9.53082C29.6129 11.2154 29.6321 11.7214 29.6321 16C29.6321 20.2786 29.6065 20.7846 29.536 22.4692Z" fill="url(#paint0_linear_3378_603)"/>
<path d="M16.5029 7.77588C11.958 7.77588 8.28369 11.4588 8.28369 16.0001C8.28369 20.5477 11.9644 24.2242 16.5029 24.2242C21.0414 24.2242 24.7222 20.5349 24.7222 16.0001C24.7222 11.4524 21.0478 7.77588 16.5029 7.77588ZM16.5029 21.3355C13.5583 21.3355 11.1707 18.9464 11.1707 16.0001C11.1707 13.0537 13.5583 10.6646 16.5029 10.6646C19.4475 10.6646 21.8352 13.0537 21.8352 16.0001C21.8352 18.9464 19.4475 21.3355 16.5029 21.3355Z" fill="url(#paint1_linear_3378_603)"/>
<path d="M25.0425 9.37725C26.1031 9.37725 26.9628 8.51695 26.9628 7.45572C26.9628 6.39448 26.1031 5.53418 25.0425 5.53418C23.9819 5.53418 23.1221 6.39448 23.1221 7.45572C23.1221 8.51695 23.9819 9.37725 25.0425 9.37725Z" fill="#BC30A0"/>
<path d="M0.5 16C0.5 20.3491 0.519204 20.8935 0.596019 22.5973C0.672835 24.301 0.94809 25.4668 1.33857 26.4852C1.74825 27.5356 2.29236 28.4323 3.18214 29.3163C4.06551 30.2002 4.96169 30.7574 6.0115 31.1609C7.02931 31.558 8.19434 31.8271 9.89708 31.9039C11.6062 31.9808 12.1503 32 16.4904 32C20.8369 32 21.381 31.9808 23.0837 31.9039C24.7865 31.8271 25.9515 31.5516 26.9693 31.1609C28.0191 30.751 28.9153 30.2066 29.7987 29.3163C30.682 28.4323 31.2389 27.5356 31.6422 26.4852C32.0391 25.4668 32.308 24.301 32.3848 22.5973C32.4616 20.8871 32.4808 20.3427 32.4808 16C32.4808 11.6509 32.4616 11.1065 32.3848 9.40272C32.308 7.69896 32.0327 6.53323 31.6422 5.51481C31.2325 4.46437 30.6884 3.56765 29.7987 2.68375C28.9217 1.79343 28.0255 1.24259 26.9757 0.839071C25.9579 0.441954 24.7929 0.172938 23.0901 0.0960769C21.381 0.0192154 20.8369 0 16.4968 0C12.1503 0 11.6062 0.0192154 9.90348 0.0960769C8.20074 0.172938 7.03571 0.448359 6.0179 0.839071C4.96809 1.249 4.07191 1.79343 3.18854 2.68375C2.30516 3.57406 1.74825 4.46437 1.34497 5.51481C0.94809 6.53323 0.672835 7.69896 0.596019 9.40272C0.519204 11.1065 0.5 11.6509 0.5 16ZM3.38698 16C3.38698 11.7278 3.40618 11.2154 3.483 9.53082C3.55341 7.96797 3.81586 7.11609 4.03351 6.55885C4.32156 5.81585 4.67363 5.27782 5.23695 4.71417C5.80026 4.15052 6.33157 3.81105 7.08052 3.51001C7.64383 3.29223 8.4952 3.02962 10.0507 2.95917C11.7342 2.88231 12.2399 2.86309 16.516 2.86309C20.7921 2.86309 21.2978 2.88231 22.9813 2.95917C24.5432 3.02962 25.3946 3.29223 25.9515 3.51001C26.694 3.79824 27.2317 4.15052 27.7951 4.71417C28.3584 5.27782 28.6976 5.80945 28.9985 6.55885C29.2161 7.1225 29.4786 7.97438 29.549 9.53082C29.6258 11.2154 29.645 11.7214 29.645 16C29.645 20.2786 29.6258 20.7846 29.549 22.4692C29.4786 24.032 29.2161 24.8839 28.9985 25.4412C28.7104 26.1841 28.3584 26.7222 27.7951 27.2858C27.2317 27.8495 26.7004 28.189 25.9515 28.49C25.3882 28.7078 24.5368 28.9704 22.9813 29.0408C21.2978 29.1177 20.7921 29.1369 16.516 29.1369C12.2399 29.1369 11.7342 29.1177 10.0507 29.0408C8.4888 28.9704 7.63743 28.7078 7.08052 28.49C6.33797 28.2018 5.80026 27.8495 5.23695 27.2858C4.67363 26.7222 4.33437 26.1906 4.03351 25.4412C3.81586 24.8775 3.55341 24.0256 3.483 22.4692C3.39978 20.7846 3.38698 20.2722 3.38698 16Z" fill="url(#paint2_linear_3378_603)"/>
<defs>
<linearGradient id="paint0_linear_3378_603" x1="27.5605" y1="2.44694" x2="4.41056" y2="30.8102" gradientUnits="userSpaceOnUse">
<stop stop-color="#AE3DAE"/>
<stop offset="0.0468721" stop-color="#B23BA6"/>
<stop offset="0.1216" stop-color="#BD368E"/>
<stop offset="0.2148" stop-color="#CE2E69"/>
<stop offset="0.3216" stop-color="#E62335"/>
<stop offset="0.418" stop-color="#FF1800"/>
</linearGradient>
<linearGradient id="paint1_linear_3378_603" x1="20.4227" y1="9.40387" x2="12.0129" y2="23.5353" gradientUnits="userSpaceOnUse">
<stop stop-color="#E12F6A"/>
<stop offset="0.1705" stop-color="#EA3751"/>
<stop offset="0.3563" stop-color="#F13D3E"/>
<stop offset="0.5467" stop-color="#F64133"/>
<stop offset="0.7469" stop-color="#F7422F"/>
<stop offset="0.7946" stop-color="#F74C2F"/>
<stop offset="0.8743" stop-color="#F7652F"/>
<stop offset="0.9757" stop-color="#F78F2E"/>
<stop offset="1" stop-color="#F79A2E"/>
</linearGradient>
<linearGradient id="paint2_linear_3378_603" x1="23.7508" y1="-1.31737" x2="9.58519" y2="32.4484" gradientUnits="userSpaceOnUse">
<stop offset="0.2341" stop-color="#9E35A5" stop-opacity="0"/>
<stop offset="0.4512" stop-color="#D42F7F" stop-opacity="0.5"/>
<stop offset="0.7524" stop-color="#F7772E"/>
<stop offset="0.9624" stop-color="#FEF780"/>
</linearGradient>
</defs>
</svg>
