<svg width="33" height="32" viewBox="0 0 33 32" fill="none" xmlns="http://www.w3.org/2000/svg">
<g clip-path="url(#clip0_3378_7345)">
<path d="M0.5 4.26892C0.5 3.2393 0.860371 2.38988 1.58108 1.72066C2.30179 1.05141 3.23875 0.716797 4.39189 0.716797C5.52446 0.716797 6.44079 1.04625 7.14093 1.70521C7.86164 2.38475 8.22201 3.27019 8.22201 4.36158C8.22201 5.35 7.87195 6.17366 7.17181 6.83263C6.4511 7.51216 5.50386 7.85193 4.33012 7.85193H4.29923C3.16666 7.85193 2.25033 7.51216 1.55019 6.83263C0.850054 6.15309 0.5 5.29851 0.5 4.26892ZM0.901544 31.2959V10.6627H7.75869V31.2959H0.901544ZM11.5579 31.2959H18.4151V19.7747C18.4151 19.054 18.4974 18.498 18.6622 18.1068C18.9504 17.4066 19.388 16.8146 19.9749 16.3307C20.5618 15.8468 21.2979 15.6048 22.1834 15.6048C24.4897 15.6048 25.6429 17.1595 25.6429 20.2689V31.2959H32.5V19.4658C32.5 16.4182 31.7793 14.1068 30.3378 12.5315C28.8964 10.9562 26.9916 10.1685 24.6236 10.1685C21.9672 10.1685 19.8977 11.3114 18.4151 13.5971V13.6589H18.3842L18.4151 13.5971V10.6627H11.5579C11.5991 11.3217 11.6197 13.3706 11.6197 16.8095C11.6197 20.2483 11.5991 25.0771 11.5579 31.2959Z" fill="#0A66C2"/>
</g>
<defs>
<clipPath id="clip0_3378_7345">
<rect width="32" height="32" fill="white" transform="translate(0.5)"/>
</clipPath>
</defs>
</svg>
