<svg width="547" height="722" viewBox="0 0 547 722" fill="none" xmlns="http://www.w3.org/2000/svg">
<path d="M455.42 543.763C429.931 551.088 366.033 557.775 314.357 525.919L117.29 394.135" stroke="white" stroke-linecap="round"/>
<path d="M455.42 543.763C429.931 551.088 366.033 557.775 314.357 525.919L117.29 394.135" stroke="url(#paint0_linear_3378_9963)" stroke-linecap="round"/>
<path d="M464.057 539.206C439.622 547.672 377.643 557.463 325.207 528.889L117.828 406.123" stroke="white" stroke-linecap="round"/>
<path d="M464.057 539.206C439.622 547.672 377.643 557.463 325.207 528.889L117.828 406.123" stroke="url(#paint1_linear_3378_9963)" stroke-linecap="round"/>
<path d="M472.064 534.82C448.729 544.332 388.81 557.03 335.818 531.719L115.252 415.173" stroke="white" stroke-linecap="round"/>
<path d="M472.064 534.82C448.729 544.332 388.81 557.03 335.818 531.719L115.252 415.173" stroke="url(#paint2_linear_3378_9963)" stroke-linecap="round"/>
<path d="M479.465 530.643C457.267 541.103 399.532 556.505 346.183 534.426L123.427 431.586" stroke="white" stroke-linecap="round"/>
<path d="M479.465 530.643C457.267 541.103 399.532 556.505 346.183 534.426L123.427 431.586" stroke="url(#paint3_linear_3378_9963)" stroke-linecap="round"/>
<path d="M486.284 526.708C465.252 538.019 409.81 555.918 356.296 537.027L132.184 447.758" stroke="white" stroke-linecap="round"/>
<path d="M486.284 526.708C465.252 538.019 409.81 555.918 356.296 537.027L132.184 447.758" stroke="url(#paint4_linear_3378_9963)" stroke-linecap="round"/>
<path d="M492.548 523.048C472.706 535.112 419.648 555.298 366.156 539.541L141.496 463.654" stroke="white" stroke-linecap="round"/>
<path d="M492.548 523.048C472.706 535.112 419.648 555.298 366.156 539.541L141.496 463.654" stroke="url(#paint5_linear_3378_9963)" stroke-linecap="round"/>
<path d="M498.285 519.693C479.647 532.41 429.048 554.672 375.759 541.983L151.335 479.246" stroke="white" stroke-linecap="round"/>
<path d="M498.285 519.693C479.647 532.41 429.048 554.672 375.759 541.983L151.335 479.246" stroke="url(#paint6_linear_3378_9963)" stroke-linecap="round"/>
<path d="M503.525 516.671C486.099 529.945 438.019 554.069 385.104 544.373L161.671 494.505" stroke="white" stroke-linecap="round"/>
<path d="M503.525 516.671C486.099 529.945 438.019 554.069 385.104 544.373L161.671 494.505" stroke="url(#paint7_linear_3378_9963)" stroke-linecap="round"/>
<path d="M508.299 514.006C492.086 527.741 446.568 553.515 394.191 546.726L172.473 509.407" stroke="white" stroke-linecap="round"/>
<path d="M508.299 514.006C492.086 527.741 446.568 553.515 394.191 546.726L172.473 509.407" stroke="url(#paint8_linear_3378_9963)" stroke-linecap="round"/>
<path d="M506.66 516.294C491.655 530.397 454.703 553.035 403.022 549.061L183.708 523.928" stroke="white" stroke-linecap="round"/>
<path d="M506.66 516.294C491.655 530.397 454.703 553.035 403.022 549.061L183.708 523.928" stroke="url(#paint9_linear_3378_9963)" stroke-linecap="round"/>
<path d="M505.206 517.361C491.396 531.739 462.438 552.655 411.599 551.394L195.342 538.05" stroke="white" stroke-linecap="round"/>
<path d="M505.206 517.361C491.396 531.739 462.438 552.655 411.599 551.394L195.342 538.05" stroke="url(#paint10_linear_3378_9963)" stroke-linecap="round"/>
<path d="M151.807 493.754C135.532 472.813 105.574 415.979 115.94 356.164L170.376 104.273" stroke="white" stroke-linecap="round"/>
<path d="M151.807 493.754C135.532 472.813 105.574 415.979 115.94 356.164L170.376 104.273" stroke="url(#paint11_linear_3378_9963)" stroke-linecap="round"/>
<path d="M159.248 500.078C142.306 480.54 110.18 426.641 117.216 367.342L157.364 116.957" stroke="white" stroke-linecap="round"/>
<path d="M159.248 500.078C142.306 480.54 110.18 426.641 117.216 367.342L157.364 116.957" stroke="url(#paint12_linear_3378_9963)" stroke-linecap="round"/>
<path d="M166.296 505.882C148.791 487.754 114.732 436.847 118.533 378.245L144.746 130.161" stroke="white" stroke-linecap="round"/>
<path d="M166.296 505.882C148.791 487.754 114.732 436.847 118.533 378.245L144.746 130.161" stroke="url(#paint13_linear_3378_9963)" stroke-linecap="round"/>
<path d="M172.925 511.2C154.962 494.48 119.204 446.606 119.872 388.873L132.546 143.852" stroke="white" stroke-linecap="round"/>
<path d="M172.925 511.2C154.962 494.48 119.204 446.606 119.872 388.873L132.546 143.852" stroke="url(#paint14_linear_3378_9963)" stroke-linecap="round"/>
<path d="M179.113 516.068C160.794 500.747 123.57 455.93 121.217 399.229L120.789 157.992" stroke="white" stroke-linecap="round"/>
<path d="M179.113 516.068C160.794 500.747 123.57 455.93 121.217 399.229L120.789 157.992" stroke="url(#paint15_linear_3378_9963)" stroke-linecap="round"/>
<path d="M184.838 520.523C166.264 506.586 127.802 464.832 122.548 409.316L109.492 172.545" stroke="white" stroke-linecap="round"/>
<path d="M184.838 520.523C166.264 506.586 127.802 464.832 122.548 409.316L109.492 172.545" stroke="url(#paint16_linear_3378_9963)" stroke-linecap="round"/>
<path d="M190.085 524.601C171.351 512.026 131.877 473.327 123.849 419.139L98.6746 187.475" stroke="white" stroke-linecap="round"/>
<path d="M190.085 524.601C171.351 512.026 131.877 473.327 123.849 419.139L98.6746 187.475" stroke="url(#paint17_linear_3378_9963)" stroke-linecap="round"/>
<path d="M194.838 528.342C176.038 517.099 135.771 481.43 125.105 428.702L88.3504 202.742" stroke="white" stroke-linecap="round"/>
<path d="M194.838 528.342C176.038 517.099 135.771 481.43 125.105 428.702L88.3504 202.742" stroke="url(#paint18_linear_3378_9963)" stroke-linecap="round"/>
<path d="M199.087 531.784C180.31 521.838 139.464 489.16 126.298 438.013L78.5315 218.309" stroke="white" stroke-linecap="round"/>
<path d="M199.087 531.784C180.31 521.838 139.464 489.16 126.298 438.013L78.5315 218.309" stroke="url(#paint19_linear_3378_9963)" stroke-linecap="round"/>
<path d="M202.822 534.964C184.152 526.276 142.933 496.535 127.413 447.079L69.2263 234.136" stroke="white" stroke-linecap="round"/>
<path d="M202.822 534.964C184.152 526.276 142.933 496.535 127.413 447.079L69.2263 234.136" stroke="url(#paint20_linear_3378_9963)" stroke-linecap="round"/>
<path d="M206.036 537.923C187.555 530.446 146.161 503.575 128.435 455.909L63.7864 250.39" stroke="white" stroke-linecap="round"/>
<path d="M206.036 537.923C187.555 530.446 146.161 503.575 128.435 455.909L63.7864 250.39" stroke="url(#paint21_linear_3378_9963)" stroke-linecap="round"/>
<path d="M84.4887 189.744C97.5908 166.685 138.6 117.229 197.818 103.873L451.335 57.5911" stroke="white" stroke-linecap="round"/>
<path d="M84.4887 189.744C97.5908 166.685 138.6 117.229 197.818 103.873L451.335 57.5911" stroke="url(#paint22_linear_3378_9963)" stroke-linecap="round"/>
<path d="M81.5008 199.041C93.0508 175.903 130.517 125.57 187.984 109.337L434.632 50.4354" stroke="white" stroke-linecap="round"/>
<path d="M81.5008 199.041C93.0508 175.903 130.517 125.57 187.984 109.337L434.632 50.4354" stroke="url(#paint23_linear_3378_9963)" stroke-linecap="round"/>
<path d="M78.8416 207.775C88.8744 184.659 122.836 133.687 178.419 114.732L417.599 43.8427" stroke="white" stroke-linecap="round"/>
<path d="M78.8416 207.775C88.8744 184.659 122.836 133.687 178.419 114.732L417.599 43.8427" stroke="url(#paint24_linear_3378_9963)" stroke-linecap="round"/>
<path d="M76.4711 215.936C85.028 192.937 115.537 141.558 169.116 120.044L400.278 37.8232" stroke="white" stroke-linecap="round"/>
<path d="M76.4711 215.936C85.028 192.937 115.537 141.558 169.116 120.044L400.278 37.8232" stroke="url(#paint25_linear_3378_9963)" stroke-linecap="round"/>
<path d="M74.347 223.517C81.4752 200.725 108.599 149.164 160.067 125.255L382.711 32.3841" stroke="white" stroke-linecap="round"/>
<path d="M74.347 223.517C81.4752 200.725 108.599 149.164 160.067 125.255L382.711 32.3841" stroke="url(#paint26_linear_3378_9963)" stroke-linecap="round"/>
<path d="M72.4276 230.513C78.1797 208.015 101.999 156.486 151.261 130.352L364.939 27.5297" stroke="white" stroke-linecap="round"/>
<path d="M72.4276 230.513C78.1797 208.015 101.999 156.486 151.261 130.352L364.939 27.5297" stroke="url(#paint27_linear_3378_9963)" stroke-linecap="round"/>
<path d="M70.6716 236.923C75.1053 214.799 95.7156 163.506 142.687 135.319L347.003 23.2617" stroke="white" stroke-linecap="round"/>
<path d="M70.6716 236.923C75.1053 214.799 95.7156 163.506 142.687 135.319L347.003 23.2617" stroke="url(#paint28_linear_3378_9963)" stroke-linecap="round"/>
<path d="M69.039 242.747C72.2165 221.073 89.7243 170.209 134.336 140.145L328.945 19.5788" stroke="white" stroke-linecap="round"/>
<path d="M69.039 242.747C72.2165 221.073 89.7243 170.209 134.336 140.145L328.945 19.5788" stroke="url(#paint29_linear_3378_9963)" stroke-linecap="round"/>
<path d="M67.4888 247.99C69.4764 226.835 83.9999 176.583 126.193 144.816L310.803 16.4771" stroke="white" stroke-linecap="round"/>
<path d="M67.4888 247.99C69.4764 226.835 83.9999 176.583 126.193 144.816L310.803 16.4771" stroke="url(#paint30_linear_3378_9963)" stroke-linecap="round"/>
<path d="M65.983 252.659C66.8509 232.085 78.5186 182.614 118.247 149.321L292.618 13.9502" stroke="white" stroke-linecap="round"/>
<path d="M65.983 252.659C66.8509 232.085 78.5186 182.614 118.247 149.321L292.618 13.9502" stroke="url(#paint31_linear_3378_9963)" stroke-linecap="round"/>
<path d="M64.4828 256.762C64.304 236.826 73.2539 188.293 110.484 153.65L274.426 11.9888" stroke="white" stroke-linecap="round"/>
<path d="M64.4828 256.762C64.304 236.826 73.2539 188.293 110.484 153.65L274.426 11.9888" stroke="url(#paint32_linear_3378_9963)" stroke-linecap="round"/>
<defs>
<linearGradient id="paint0_linear_3378_9963" x1="242.891" y1="500.451" x2="331.095" y2="435.686" gradientUnits="userSpaceOnUse">
<stop stop-color="#B66ADF"/>
<stop offset="0.177083" stop-color="#B6B2F6"/>
</linearGradient>
<linearGradient id="paint1_linear_3378_9963" x1="249.808" y1="506.246" x2="333.229" y2="437.262" gradientUnits="userSpaceOnUse">
<stop stop-color="#B66ADF"/>
<stop offset="0.177083" stop-color="#B6B2F6"/>
</linearGradient>
<linearGradient id="paint2_linear_3378_9963" x1="254.95" y1="510.485" x2="333.386" y2="437.627" gradientUnits="userSpaceOnUse">
<stop stop-color="#B66ADF"/>
<stop offset="0.177083" stop-color="#B6B2F6"/>
</linearGradient>
<linearGradient id="paint3_linear_3378_9963" x1="265.858" y1="517.724" x2="337.912" y2="442.617" gradientUnits="userSpaceOnUse">
<stop stop-color="#B66ADF"/>
<stop offset="0.177083" stop-color="#B6B2F6"/>
</linearGradient>
<linearGradient id="paint4_linear_3378_9963" x1="276.764" y1="524.724" x2="342.443" y2="447.855" gradientUnits="userSpaceOnUse">
<stop stop-color="#B66ADF"/>
<stop offset="0.177083" stop-color="#B6B2F6"/>
</linearGradient>
<linearGradient id="paint5_linear_3378_9963" x1="287.65" y1="531.491" x2="346.997" y2="453.337" gradientUnits="userSpaceOnUse">
<stop stop-color="#B66ADF"/>
<stop offset="0.177083" stop-color="#B6B2F6"/>
</linearGradient>
<linearGradient id="paint6_linear_3378_9963" x1="298.5" y1="538.029" x2="351.591" y2="459.056" gradientUnits="userSpaceOnUse">
<stop stop-color="#B66ADF"/>
<stop offset="0.177083" stop-color="#B6B2F6"/>
</linearGradient>
<linearGradient id="paint7_linear_3378_9963" x1="309.299" y1="544.345" x2="356.241" y2="465.007" gradientUnits="userSpaceOnUse">
<stop stop-color="#B66ADF"/>
<stop offset="0.177083" stop-color="#B6B2F6"/>
</linearGradient>
<linearGradient id="paint8_linear_3378_9963" x1="320.03" y1="550.447" x2="360.963" y2="471.18" gradientUnits="userSpaceOnUse">
<stop stop-color="#B66ADF"/>
<stop offset="0.177083" stop-color="#B6B2F6"/>
</linearGradient>
<linearGradient id="paint9_linear_3378_9963" x1="328.479" y1="556.869" x2="361.971" y2="481.685" gradientUnits="userSpaceOnUse">
<stop stop-color="#B66ADF"/>
<stop offset="0.177083" stop-color="#B6B2F6"/>
</linearGradient>
<linearGradient id="paint10_linear_3378_9963" x1="336.697" y1="562.788" x2="363.818" y2="491.058" gradientUnits="userSpaceOnUse">
<stop stop-color="#B66ADF"/>
<stop offset="0.177083" stop-color="#B6B2F6"/>
</linearGradient>
<linearGradient id="paint11_linear_3378_9963" x1="114.213" y1="269.429" x2="210.158" y2="329.129" gradientUnits="userSpaceOnUse">
<stop stop-color="#B66ADF"/>
<stop offset="0.177083" stop-color="#B6B2F6"/>
</linearGradient>
<linearGradient id="paint12_linear_3378_9963" x1="111.081" y1="282.383" x2="207.692" y2="335.038" gradientUnits="userSpaceOnUse">
<stop stop-color="#B66ADF"/>
<stop offset="0.177083" stop-color="#B6B2F6"/>
</linearGradient>
<linearGradient id="paint13_linear_3378_9963" x1="108.186" y1="295.277" x2="204.979" y2="341.013" gradientUnits="userSpaceOnUse">
<stop stop-color="#B66ADF"/>
<stop offset="0.177083" stop-color="#B6B2F6"/>
</linearGradient>
<linearGradient id="paint14_linear_3378_9963" x1="105.521" y1="308.095" x2="202.029" y2="347.069" gradientUnits="userSpaceOnUse">
<stop stop-color="#B66ADF"/>
<stop offset="0.177083" stop-color="#B6B2F6"/>
</linearGradient>
<linearGradient id="paint15_linear_3378_9963" x1="103.076" y1="320.821" x2="198.851" y2="353.223" gradientUnits="userSpaceOnUse">
<stop stop-color="#B66ADF"/>
<stop offset="0.177083" stop-color="#B6B2F6"/>
</linearGradient>
<linearGradient id="paint16_linear_3378_9963" x1="100.84" y1="333.443" x2="195.454" y2="359.488" gradientUnits="userSpaceOnUse">
<stop stop-color="#B66ADF"/>
<stop offset="0.177083" stop-color="#B6B2F6"/>
</linearGradient>
<linearGradient id="paint17_linear_3378_9963" x1="98.8034" y1="345.946" x2="191.852" y2="365.879" gradientUnits="userSpaceOnUse">
<stop stop-color="#B66ADF"/>
<stop offset="0.177083" stop-color="#B6B2F6"/>
</linearGradient>
<linearGradient id="paint18_linear_3378_9963" x1="96.9534" y1="358.318" x2="188.056" y2="372.407" gradientUnits="userSpaceOnUse">
<stop stop-color="#B66ADF"/>
<stop offset="0.177083" stop-color="#B6B2F6"/>
</linearGradient>
<linearGradient id="paint19_linear_3378_9963" x1="95.2781" y1="370.549" x2="184.081" y2="379.086" gradientUnits="userSpaceOnUse">
<stop stop-color="#B66ADF"/>
<stop offset="0.177083" stop-color="#B6B2F6"/>
</linearGradient>
<linearGradient id="paint20_linear_3378_9963" x1="93.7637" y1="382.627" x2="179.939" y2="385.924" gradientUnits="userSpaceOnUse">
<stop stop-color="#B66ADF"/>
<stop offset="0.177083" stop-color="#B6B2F6"/>
</linearGradient>
<linearGradient id="paint21_linear_3378_9963" x1="95.0433" y1="394.628" x2="176.306" y2="393.055" gradientUnits="userSpaceOnUse">
<stop stop-color="#B66ADF"/>
<stop offset="0.177083" stop-color="#B6B2F6"/>
</linearGradient>
<linearGradient id="paint22_linear_3378_9963" x1="277.266" y1="69.0298" x2="258.906" y2="180.53" gradientUnits="userSpaceOnUse">
<stop stop-color="#B66ADF"/>
<stop offset="0.177083" stop-color="#B6B2F6"/>
</linearGradient>
<linearGradient id="paint23_linear_3378_9963" x1="264.101" y1="71.1027" x2="252.503" y2="180.518" gradientUnits="userSpaceOnUse">
<stop stop-color="#B66ADF"/>
<stop offset="0.177083" stop-color="#B6B2F6"/>
</linearGradient>
<linearGradient id="paint24_linear_3378_9963" x1="251.082" y1="73.3719" x2="245.945" y2="180.303" gradientUnits="userSpaceOnUse">
<stop stop-color="#B66ADF"/>
<stop offset="0.177083" stop-color="#B6B2F6"/>
</linearGradient>
<linearGradient id="paint25_linear_3378_9963" x1="238.222" y1="75.8236" x2="239.22" y2="179.899" gradientUnits="userSpaceOnUse">
<stop stop-color="#B66ADF"/>
<stop offset="0.177083" stop-color="#B6B2F6"/>
</linearGradient>
<linearGradient id="paint26_linear_3378_9963" x1="225.53" y1="78.4437" x2="232.318" y2="179.322" gradientUnits="userSpaceOnUse">
<stop stop-color="#B66ADF"/>
<stop offset="0.177083" stop-color="#B6B2F6"/>
</linearGradient>
<linearGradient id="paint27_linear_3378_9963" x1="213.016" y1="81.2171" x2="225.23" y2="178.587" gradientUnits="userSpaceOnUse">
<stop stop-color="#B66ADF"/>
<stop offset="0.177083" stop-color="#B6B2F6"/>
</linearGradient>
<linearGradient id="paint28_linear_3378_9963" x1="200.687" y1="84.1289" x2="217.946" y2="177.71" gradientUnits="userSpaceOnUse">
<stop stop-color="#B66ADF"/>
<stop offset="0.177083" stop-color="#B6B2F6"/>
</linearGradient>
<linearGradient id="paint29_linear_3378_9963" x1="188.551" y1="87.1632" x2="210.462" y2="176.707" gradientUnits="userSpaceOnUse">
<stop stop-color="#B66ADF"/>
<stop offset="0.177083" stop-color="#B6B2F6"/>
</linearGradient>
<linearGradient id="paint30_linear_3378_9963" x1="176.612" y1="90.3041" x2="202.769" y2="175.595" gradientUnits="userSpaceOnUse">
<stop stop-color="#B66ADF"/>
<stop offset="0.177083" stop-color="#B6B2F6"/>
</linearGradient>
<linearGradient id="paint31_linear_3378_9963" x1="164.877" y1="93.5355" x2="194.865" y2="174.392" gradientUnits="userSpaceOnUse">
<stop stop-color="#B66ADF"/>
<stop offset="0.177083" stop-color="#B6B2F6"/>
</linearGradient>
<linearGradient id="paint32_linear_3378_9963" x1="153.346" y1="96.8408" x2="186.746" y2="173.113" gradientUnits="userSpaceOnUse">
<stop stop-color="#B66ADF"/>
<stop offset="0.177083" stop-color="#B6B2F6"/>
</linearGradient>
</defs>
</svg>
