<svg width="33" height="32" viewBox="0 0 33 32" fill="none" xmlns="http://www.w3.org/2000/svg">
<path fill-rule="evenodd" clip-rule="evenodd" d="M3.21619 15.0578C11.4848 11.4552 16.9986 9.08025 19.7574 7.93277C27.6343 4.65648 29.2711 4.08735 30.3379 4.06856C30.5725 4.06443 31.0972 4.12258 31.437 4.39833C31.724 4.63117 31.8029 4.9457 31.8407 5.16646C31.8785 5.38721 31.9255 5.8901 31.8881 6.28305C31.4613 10.768 29.6143 21.6519 28.6746 26.6752C28.277 28.8007 27.4941 29.5134 26.7362 29.5832C25.0891 29.7347 23.8383 28.4946 22.243 27.4489C19.7466 25.8124 18.3363 24.7938 15.9131 23.1969C13.1127 21.3515 14.9281 20.3372 16.524 18.6796C16.9417 18.2458 24.199 11.6447 24.3395 11.0459C24.3571 10.971 24.3734 10.6918 24.2075 10.5444C24.0417 10.397 23.7969 10.4474 23.6203 10.4875C23.3699 10.5443 19.3819 13.1803 11.6562 18.3953C10.5242 19.1726 9.49891 19.5513 8.58026 19.5315C7.56752 19.5096 5.61942 18.9589 4.17121 18.4881C2.39492 17.9107 0.983163 17.6054 1.1061 16.6248C1.17013 16.1141 1.87349 15.5917 3.21619 15.0578Z" fill="url(#paint0_linear_3338_29970)"/>
<defs>
<linearGradient id="paint0_linear_3338_29970" x1="16.5002" y1="4.06836" x2="16.5002" y2="29.4065" gradientUnits="userSpaceOnUse">
<stop stop-color="#2AABEE"/>
<stop offset="1" stop-color="#229ED9"/>
</linearGradient>
</defs>
</svg>
